# xmcd
#
# Track frame offsets:
#   150
#   33808
#   76301
#   101334
#   129346
#   151356
#   176702
#   188123
#   216729
#   243133
#
# Disc length: 3526 seconds
#
# Revision: 0
# Processed by: cddbd v1.5.2PL0 Copyright (c) Steve Scherf et al.
# Submitted via: GXTranscoder 2.0.1939
#
DISCID=7b0dc40a
DTITLE=Trout, Walter - Relentless - The Concert - CD1
DYEAR=2003
DGENRE=Blues-Rock
TTITLE0=Dust My Broom
TTITLE1=Reason I'm Gone
TTITLE2=Talk To Ya
TTITLE3=I'm Tired
TTITLE4=Cry If You Want To
TTITLE5=Helpin' Hand
TTITLE6=Lonely Tonight
TTITLE7=The Life I Chose
TTITLE8=Work No More
TTITLE9=Jericho Road
EXTD=
EXTT0=
EXTT1=
EXTT2=
EXTT3=
EXTT4=
EXTT5=
EXTT6=
EXTT7=
EXTT8=
EXTT9=
PLAYORDER=
